<?xml version="1.0" encoding="us-ascii" standalone="no"?><svg xmlns="http://www.w3.org/2000/svg" xmlns:xlink="http://www.w3.org/1999/xlink" contentStyleType="text/css" height="752px" preserveAspectRatio="none" style="width:454px;height:752px;background:#FFFFFF;" version="1.1" viewBox="0 0 454 752" width="454px" zoomAndPan="magnify"><defs/><g><text fill="#000000" font-family="sans-serif" font-size="14" font-weight="bold" lengthAdjust="spacing" textLength="280" x="80.262" y="24.5332">Deployment Diagram - Habitreee System</text><!--cluster Smartphone\n(Studierende)--><g id="cluster_Smartphone\n(Studierende)"><polygon fill="none" points="16,54.6094,26,44.6094,214,44.6094,214,192.6094,204,202.6094,16,202.6094,16,54.6094" style="stroke:#181818;stroke-width:1.0;"/><line style="stroke:#181818;stroke-width:1.0;" x1="204" x2="214" y1="54.6094" y2="44.6094"/><line style="stroke:#181818;stroke-width:1.0;" x1="16" x2="204" y1="54.6094" y2="54.6094"/><line style="stroke:#181818;stroke-width:1.0;" x1="204" x2="204" y1="54.6094" y2="202.6094"/><text fill="#000000" font-family="sans-serif" font-size="14" font-weight="bold" lengthAdjust="spacing" textLength="85" x="68.5" y="72.1426">Smartphone</text><text fill="#000000" font-family="sans-serif" font-size="14" font-weight="bold" lengthAdjust="spacing" textLength="97" x="62.5" y="89.752">(Studierende)</text></g><!--cluster Firebase Cloud\n(externer Dienst)--><g id="cluster_Firebase Cloud\n(externer Dienst)"><path d="M279.3685,67.4591 C283.2601,61.6909 288.785,60.6136 292.546,67.594 C296.1143,61.9401 299.7442,61.7641 304.317,66.4504 C307.0355,59.1244 312.3532,59.7791 317.1036,64.2474 C321.1179,58.4406 325.0945,59.6292 328.7343,64.6497 C331.1296,58.6894 337.3783,56.1452 341.8222,62.4667 C344.1861,56.0152 350.1722,56.1999 353.7285,61.2302 C357.7345,55.533 362.1754,57.3199 365.2104,62.2766 C369.4132,56.4413 375.7914,57.0155 377.9443,64.2706 C381.7751,58.8942 387.1631,59.9119 389.731,65.6141 C393.3333,58.9185 398.5145,58.1807 403.0309,64.6936 C408.3144,59.1293 411.9398,60.7878 415.3932,66.67 C424.5111,60.1604 430.3968,63.5896 433,73.6094 C433.7528,73.7059 434.1434,74.2913 433.6203,74.9697 C440.0809,77.1516 441.5423,82.9726 436.2883,87.6243 C443.8784,91.045 443.108,96.0959 437.613,100.8292 C443.4843,104.7356 444.3175,109.214 439.0023,114.2761 C446.1584,117.206 445.8542,121.2231 441.256,126.3475 C447.524,131.2099 446.0831,137.0121 439.1497,139.8089 C444.269,144.935 443.2832,151.0348 436.4076,153.8121 C441.7659,158.5239 443.0807,163.1127 435.8272,167.2811 C441.1275,177.7805 438.8277,184.8297 426,185.6094 C427.1529,185.9359 427.4944,186.7251 426.7948,187.742 C422.2303,193.2359 417.0866,193.9368 413.7341,186.5163 C410.441,193.3004 406.687,194.5428 401.4041,188.4167 C398.6515,193.5036 393.8215,193.756 390.4754,189.0812 C386.6359,194.0929 381.7506,193.4815 378.6288,188.251 C374.4713,195.2365 369.7558,195.1282 364.7308,189.1835 C361.8633,193.7244 357.0239,195.1142 354.0305,189.3138 C350.8176,195.507 345.27,194.9403 341.5537,189.8715 C336.6611,195.4908 332.2568,194.2861 328.5047,188.5596 C325.4832,193.4943 319.8172,194.0013 316.524,188.8834 C312.4177,193.4143 306.927,193.5099 304.4839,187.0598 C300.6215,193.9558 295.2389,194.1881 290.7767,187.6729 C280.5602,195.3962 271.9143,191.1835 271,178.6094 C272.242,178.7391 272.6912,179.2986 272.2202,180.5214 C264.3163,177.0296 264.3806,170.0868 271.5769,165.9293 C266.2803,161.6757 265.9615,157.6796 272.2544,154.0892 C263.8987,150.7267 264.6744,144.4598 270.3378,139.2826 C263.921,136.1402 264.1286,130.3347 270.1831,127.0347 C264.636,122.241 265.503,116.6188 271.6511,113.0531 C264.4511,109.0409 266.0523,104.4075 271.1878,99.9588 C265.7124,96.849 266.2,91.4216 271.037,88.1798 C264.3517,78.4456 266.9223,70.6096 278,66.6094 C278.7041,66.2641 279.467,66.5117 279.3685,67.4591 " fill="none" style="stroke:#181818;stroke-width:1.0;"/><text fill="#000000" font-family="sans-serif" font-size="14" font-weight="bold" lengthAdjust="spacing" textLength="107" x="298.5" y="86.1426">Firebase Cloud</text><text fill="#000000" font-family="sans-serif" font-size="14" font-weight="bold" lengthAdjust="spacing" textLength="120" x="292" y="103.752">(externer Dienst)</text></g><!--cluster Hochschulserver\n(Backend Server)--><g id="cluster_Hochschulserver\n(Backend Server)"><polygon fill="none" points="170,262.6094,180,252.6094,369,252.6094,369,525.6094,359,535.6094,170,535.6094,170,262.6094" style="stroke:#181818;stroke-width:1.0;"/><line style="stroke:#181818;stroke-width:1.0;" x1="359" x2="369" y1="262.6094" y2="252.6094"/><line style="stroke:#181818;stroke-width:1.0;" x1="170" x2="359" y1="262.6094" y2="262.6094"/><line style="stroke:#181818;stroke-width:1.0;" x1="359" x2="359" y1="262.6094" y2="535.6094"/><text fill="#000000" font-family="sans-serif" font-size="14" font-weight="bold" lengthAdjust="spacing" textLength="121" x="205" y="280.1426">Hochschulserver</text><text fill="#000000" font-family="sans-serif" font-size="14" font-weight="bold" lengthAdjust="spacing" textLength="123" x="204" y="297.752">(Backend Server)</text></g><!--cluster Hochschulserver\n(PostgreSQL Server)--><g id="cluster_Hochschulserver\n(PostgreSQL Server)"><path d="M145,595.6094 C145,585.6094 269,585.6094 269,585.6094 C269,585.6094 393,585.6094 393,595.6094 L393,725.6094 C393,735.6094 269,735.6094 269,735.6094 C269,735.6094 145,735.6094 145,725.6094 L145,595.6094 " fill="none" style="stroke:#181818;stroke-width:1.0;"/><path d="M145,595.6094 C145,605.6094 269,605.6094 269,605.6094 C269,605.6094 393,605.6094 393,595.6094 " fill="none" style="stroke:#181818;stroke-width:1.0;"/><text fill="#000000" font-family="sans-serif" font-size="14" font-weight="bold" lengthAdjust="spacing" textLength="121" x="208.5" y="622.1426">Hochschulserver</text><text fill="#000000" font-family="sans-serif" font-size="14" font-weight="bold" lengthAdjust="spacing" textLength="145" x="196.5" y="639.752">(PostgreSQL Server)</text></g><!--entity Mobile App\nReact Native (Expo)--><g id="elem_Mobile App\nReact Native (Expo)"><rect fill="#F1F1F1" height="82.8281" rx="2.5" ry="2.5" style="stroke:#181818;stroke-width:0.5;" width="165" x="32.5" y="103.6094"/><rect fill="#F1F1F1" height="10" style="stroke:#181818;stroke-width:0.5;" width="15" x="177.5" y="108.6094"/><rect fill="#F1F1F1" height="2" style="stroke:#181818;stroke-width:0.5;" width="4" x="175.5" y="110.6094"/><rect fill="#F1F1F1" height="2" style="stroke:#181818;stroke-width:0.5;" width="4" x="175.5" y="114.6094"/><text fill="#000000" font-family="sans-serif" font-size="14" font-style="italic" lengthAdjust="spacing" textLength="87" x="66.5" y="138.1426">&#171;Mobile App&#187;</text><text fill="#000000" font-family="sans-serif" font-size="14" lengthAdjust="spacing" textLength="70" x="47.5" y="155.752">Mobile App</text><text fill="#000000" font-family="sans-serif" font-size="14" lengthAdjust="spacing" textLength="125" x="47.5" y="173.3613">React Native (Expo)</text></g><!--entity Firebase Auth\nAuthentifizierung--><g id="elem_Firebase Auth\nAuthentifizierung"><rect fill="#F1F1F1" height="65.2188" rx="2.5" ry="2.5" style="stroke:#181818;stroke-width:0.5;" width="145" x="279.5" y="112.6094"/><rect fill="#F1F1F1" height="10" style="stroke:#181818;stroke-width:0.5;" width="15" x="404.5" y="117.6094"/><rect fill="#F1F1F1" height="2" style="stroke:#181818;stroke-width:0.5;" width="4" x="402.5" y="119.6094"/><rect fill="#F1F1F1" height="2" style="stroke:#181818;stroke-width:0.5;" width="4" x="402.5" y="123.6094"/><text fill="#000000" font-family="sans-serif" font-size="14" lengthAdjust="spacing" textLength="89" x="294.5" y="147.1426">Firebase Auth</text><text fill="#000000" font-family="sans-serif" font-size="14" lengthAdjust="spacing" textLength="105" x="294.5" y="164.752">Authentifizierung</text></g><!--entity Backend Service\nNode.js + Express--><g id="elem_Backend Service\nNode.js + Express"><rect fill="#F1F1F1" height="65.2188" rx="2.5" ry="2.5" style="stroke:#181818;stroke-width:0.5;" width="153" x="192.5" y="311.6094"/><rect fill="#F1F1F1" height="10" style="stroke:#181818;stroke-width:0.5;" width="15" x="325.5" y="316.6094"/><rect fill="#F1F1F1" height="2" style="stroke:#181818;stroke-width:0.5;" width="4" x="323.5" y="318.6094"/><rect fill="#F1F1F1" height="2" style="stroke:#181818;stroke-width:0.5;" width="4" x="323.5" y="322.6094"/><text fill="#000000" font-family="sans-serif" font-size="14" lengthAdjust="spacing" textLength="106" x="207.5" y="346.1426">Backend Service</text><text fill="#000000" font-family="sans-serif" font-size="14" lengthAdjust="spacing" textLength="113" x="207.5" y="363.752">Node.js + Express</text></g><!--entity Prisma ORM\nORM-Modul--><g id="elem_Prisma ORM\nORM-Modul"><rect fill="#F1F1F1" height="65.2188" rx="2.5" ry="2.5" style="stroke:#181818;stroke-width:0.5;" width="119" x="209.5" y="454.6094"/><rect fill="#F1F1F1" height="10" style="stroke:#181818;stroke-width:0.5;" width="15" x="308.5" y="459.6094"/><rect fill="#F1F1F1" height="2" style="stroke:#181818;stroke-width:0.5;" width="4" x="306.5" y="461.6094"/><rect fill="#F1F1F1" height="2" style="stroke:#181818;stroke-width:0.5;" width="4" x="306.5" y="465.6094"/><text fill="#000000" font-family="sans-serif" font-size="14" lengthAdjust="spacing" textLength="79" x="224.5" y="489.1426">Prisma ORM</text><text fill="#000000" font-family="sans-serif" font-size="14" lengthAdjust="spacing" textLength="75" x="224.5" y="506.752">ORM-Modul</text></g><!--entity PostgreSQL Datenbank\nNutzerdaten, Gewohnheiten--><g id="elem_PostgreSQL Datenbank\nNutzerdaten, Gewohnheiten"><rect fill="#F1F1F1" height="65.2188" rx="2.5" ry="2.5" style="stroke:#181818;stroke-width:0.5;" width="215" x="161.5" y="654.6094"/><rect fill="#F1F1F1" height="10" style="stroke:#181818;stroke-width:0.5;" width="15" x="356.5" y="659.6094"/><rect fill="#F1F1F1" height="2" style="stroke:#181818;stroke-width:0.5;" width="4" x="354.5" y="661.6094"/><rect fill="#F1F1F1" height="2" style="stroke:#181818;stroke-width:0.5;" width="4" x="354.5" y="665.6094"/><text fill="#000000" font-family="sans-serif" font-size="14" lengthAdjust="spacing" textLength="150" x="176.5" y="689.1426">PostgreSQL Datenbank</text><text fill="#000000" font-family="sans-serif" font-size="14" lengthAdjust="spacing" textLength="175" x="176.5" y="706.752">Nutzerdaten, Gewohnheiten</text></g><!--link Mobile App\nReact Native (Expo) to Backend Service\nNode.js + Express--><g id="link_Mobile App\nReact Native (Expo)_Backend Service\nNode.js + Express"><path d="M117.48,186.6494 C119.97,203.1194 124.78,221.7394 134,236.6094 C153.19,267.5694 179.7444,289.8912 207.5244,308.2512 " fill="none" id="Mobile App\nReact Native (Expo)-to-Backend Service\nNode.js + Express" style="stroke:#181818;stroke-width:1.0;"/><polygon fill="#181818" points="212.53,311.5594,207.2271,303.26,208.3587,308.8025,202.8162,309.9341,212.53,311.5594" style="stroke:#181818;stroke-width:1.0;"/><text fill="#000000" font-family="sans-serif" font-size="13" lengthAdjust="spacing" textLength="112" x="135" y="233.1045">REST API (HTTPS)</text></g><!--link Backend Service\nNode.js + Express to Firebase Auth\nAuthentifizierung--><g id="link_Backend Service\nNode.js + Express_Firebase Auth\nAuthentifizierung"><path d="M294.59,311.4794 C309.62,291.2494 327.64,263.7794 338,236.6094 C345.14,217.8894 348.061,201.6514 349.781,183.9114 " fill="none" id="Backend Service\nNode.js + Express-to-Firebase Auth\nAuthentifizierung" style="stroke:#181818;stroke-width:1.0;"/><polygon fill="#181818" points="350.36,177.9394,345.5101,186.5114,349.8775,182.916,353.4728,187.2834,350.36,177.9394" style="stroke:#181818;stroke-width:1.0;"/><text fill="#000000" font-family="sans-serif" font-size="13" lengthAdjust="spacing" textLength="96" x="344" y="233.1045">Authentifizierung</text></g><!--link Firebase Auth\nAuthentifizierung to Backend Service\nNode.js + Express--><g id="link_Firebase Auth\nAuthentifizierung_Backend Service\nNode.js + Express"><path d="M296.91,177.8494 C282.93,188.8294 269.71,202.4994 262,218.6094 C248.03,247.7994 251.3441,279.5288 257.7041,305.7188 " fill="none" id="Firebase Auth\nAuthentifizierung-to-Backend Service\nNode.js + Express" style="stroke:#181818;stroke-width:1.0;"/><polygon fill="#181818" points="259.12,311.5494,260.8832,301.8596,257.9401,306.6906,253.1091,303.7475,259.12,311.5494" style="stroke:#181818;stroke-width:1.0;"/><text fill="#000000" font-family="sans-serif" font-size="13" lengthAdjust="spacing" textLength="66" x="263" y="233.1045">Firebase ID</text></g><!--link Prisma ORM\nORM-Modul to PostgreSQL Datenbank\nNutzerdaten, Gewohnheiten--><g id="link_Prisma ORM\nORM-Modul_PostgreSQL Datenbank\nNutzerdaten, Gewohnheiten"><path d="M269,519.9194 C269,556.8694 269,611.4594 269,648.3794 " fill="none" id="Prisma ORM\nORM-Modul-to-PostgreSQL Datenbank\nNutzerdaten, Gewohnheiten" style="stroke:#181818;stroke-width:1.0;"/><polygon fill="#181818" points="269,654.3794,273,645.3794,269,649.3794,265,645.3794,269,654.3794" style="stroke:#181818;stroke-width:1.0;"/><text fill="#000000" font-family="sans-serif" font-size="13" lengthAdjust="spacing" textLength="64" x="270" y="566.1045">SQL-Zugriff</text></g><!--link Backend Service\nNode.js + Express to Prisma ORM\nORM-Modul--><g id="link_Backend Service\nNode.js + Express_Prisma ORM\nORM-Modul"><path d="M269,376.7494 C269,399.9694 269,425.3794 269,448.5694 " fill="none" id="Backend Service\nNode.js + Express-to-Prisma ORM\nORM-Modul" style="stroke:#181818;stroke-width:1.0;"/><polygon fill="#181818" points="269,454.5694,273,445.5694,269,449.5694,265,445.5694,269,454.5694" style="stroke:#181818;stroke-width:1.0;"/><text fill="#000000" font-family="sans-serif" font-size="13" lengthAdjust="spacing" textLength="29" x="270" y="421.1045">nutzt</text></g><!--SRC=[bLBBRjim4BppAxQ-n4QgVa0G670ZDmuGEuvbzD1Q1qfSIzj8f41IUHNzzwva9N6S1B4l1BYSdTaPxXU5Qz88Y_7PSZGxlnn3MaZdXF3a2uGGgy8ybAWzX2GpAqi8O28JyXOH8Nfm7aiXZY0gfVLLRfXAeOLPxH_H2cqKGk_bRQNxaQyLeKMjSD23lmBWzzGan5gZgbhf1ShKmqnwkaNeZ-yhCuZXzFG5CXoAVutW3xAOICUrskVGntkFLhDoIAYT7uYqCBM2tZFihBcp_Ywmc-4LtKet9vkcDJtoiBNEuetgnAIvI_EwS6XlcQGa3zzbUiDsEhCx25RitY5g2q-2srLAEPaPjt_xu-0OsBL5v-86DhVaIWbNY-bAyn5CZQgBMF3JqIv5344mtEw8uGGqVuJVp3utpcSMe-jB2AL7dKXzmy5HXaqSc-d0DB-NOSvOv1ILzBADvHrVMtolhRqdnFxQbL1DuIkSuvt9TOx4joxQdsWJqegpHYq-tudMwnuXSWQBSRI4qVm2-fFbSXuDn5vzhS2dQy7qRufYZxO3ndyckmZ51_lG_Vo1kJCtOuDVTMPflJuWbG-6UDgs_m00]--></g></svg>