<?xml version="1.0" encoding="us-ascii" standalone="no"?><svg xmlns="http://www.w3.org/2000/svg" xmlns:xlink="http://www.w3.org/1999/xlink" contentStyleType="text/css" height="770px" preserveAspectRatio="none" style="width:712px;height:770px;background:#FFFFFF;" version="1.1" viewBox="0 0 712 770" width="712px" zoomAndPan="magnify"><defs/><g><text fill="#000000" font-family="sans-serif" font-size="14" font-weight="bold" lengthAdjust="spacing" textLength="280" x="209" y="24.5332">Deployment Diagram - Habitreee System</text><!--cluster Smartphone\n(Studierende)--><g id="cluster_Smartphone\n(Studierende)"><polygon fill="none" points="16,54.6094,26,44.6094,214,44.6094,214,192.6094,204,202.6094,16,202.6094,16,54.6094" style="stroke:#181818;stroke-width:1.0;"/><line style="stroke:#181818;stroke-width:1.0;" x1="204" x2="214" y1="54.6094" y2="44.6094"/><line style="stroke:#181818;stroke-width:1.0;" x1="16" x2="204" y1="54.6094" y2="54.6094"/><line style="stroke:#181818;stroke-width:1.0;" x1="204" x2="204" y1="54.6094" y2="202.6094"/><text fill="#000000" font-family="sans-serif" font-size="14" font-weight="bold" lengthAdjust="spacing" textLength="85" x="68.5" y="72.1426">Smartphone</text><text fill="#000000" font-family="sans-serif" font-size="14" font-weight="bold" lengthAdjust="spacing" textLength="97" x="62.5" y="89.752">(Studierende)</text></g><!--cluster Hochschulserver\n(Backend Server)--><g id="cluster_Hochschulserver\n(Backend Server)"><polygon fill="none" points="22,262.6094,32,252.6094,593,252.6094,593,543.6094,583,553.6094,22,553.6094,22,262.6094" style="stroke:#181818;stroke-width:1.0;"/><line style="stroke:#181818;stroke-width:1.0;" x1="583" x2="593" y1="262.6094" y2="252.6094"/><line style="stroke:#181818;stroke-width:1.0;" x1="22" x2="583" y1="262.6094" y2="262.6094"/><line style="stroke:#181818;stroke-width:1.0;" x1="583" x2="583" y1="262.6094" y2="553.6094"/><text fill="#000000" font-family="sans-serif" font-size="14" font-weight="bold" lengthAdjust="spacing" textLength="121" x="243" y="280.1426">Hochschulserver</text><text fill="#000000" font-family="sans-serif" font-size="14" font-weight="bold" lengthAdjust="spacing" textLength="123" x="242" y="297.752">(Backend Server)</text></g><!--cluster Hochschulserver\n(PostgreSQL Server)--><g id="cluster_Hochschulserver\n(PostgreSQL Server)"><path d="M249,613.6094 C249,603.6094 373,603.6094 373,603.6094 C373,603.6094 497,603.6094 497,613.6094 L497,743.6094 C497,753.6094 373,753.6094 373,753.6094 C373,753.6094 249,753.6094 249,743.6094 L249,613.6094 " fill="none" style="stroke:#181818;stroke-width:1.0;"/><path d="M249,613.6094 C249,623.6094 373,623.6094 373,623.6094 C373,623.6094 497,623.6094 497,613.6094 " fill="none" style="stroke:#181818;stroke-width:1.0;"/><text fill="#000000" font-family="sans-serif" font-size="14" font-weight="bold" lengthAdjust="spacing" textLength="121" x="312.5" y="640.1426">Hochschulserver</text><text fill="#000000" font-family="sans-serif" font-size="14" font-weight="bold" lengthAdjust="spacing" textLength="145" x="300.5" y="657.752">(PostgreSQL Server)</text></g><!--entity Mobile App\nReact Native (Expo)--><g id="elem_Mobile App\nReact Native (Expo)"><rect fill="#F1F1F1" height="82.8281" rx="2.5" ry="2.5" style="stroke:#181818;stroke-width:0.5;" width="165" x="32.5" y="103.6094"/><rect fill="#F1F1F1" height="10" style="stroke:#181818;stroke-width:0.5;" width="15" x="177.5" y="108.6094"/><rect fill="#F1F1F1" height="2" style="stroke:#181818;stroke-width:0.5;" width="4" x="175.5" y="110.6094"/><rect fill="#F1F1F1" height="2" style="stroke:#181818;stroke-width:0.5;" width="4" x="175.5" y="114.6094"/><text fill="#000000" font-family="sans-serif" font-size="14" font-style="italic" lengthAdjust="spacing" textLength="87" x="66.5" y="138.1426">&#171;Mobile App&#187;</text><text fill="#000000" font-family="sans-serif" font-size="14" lengthAdjust="spacing" textLength="70" x="47.5" y="155.752">Mobile App</text><text fill="#000000" font-family="sans-serif" font-size="14" lengthAdjust="spacing" textLength="125" x="47.5" y="173.3613">React Native (Expo)</text></g><!--entity Backend Service\nNode.js + Express--><g id="elem_Backend Service\nNode.js + Express"><rect fill="#F1F1F1" height="65.2188" rx="2.5" ry="2.5" style="stroke:#181818;stroke-width:0.5;" width="153" x="38.5" y="320.6094"/><rect fill="#F1F1F1" height="10" style="stroke:#181818;stroke-width:0.5;" width="15" x="171.5" y="325.6094"/><rect fill="#F1F1F1" height="2" style="stroke:#181818;stroke-width:0.5;" width="4" x="169.5" y="327.6094"/><rect fill="#F1F1F1" height="2" style="stroke:#181818;stroke-width:0.5;" width="4" x="169.5" y="331.6094"/><text fill="#000000" font-family="sans-serif" font-size="14" lengthAdjust="spacing" textLength="106" x="53.5" y="355.1426">Backend Service</text><text fill="#000000" font-family="sans-serif" font-size="14" lengthAdjust="spacing" textLength="113" x="53.5" y="372.752">Node.js + Express</text></g><!--entity JWT Authentifizierung\nLogik--><g id="elem_JWT Authentifizierung\nLogik"><rect fill="#F1F1F1" height="82.8281" rx="2.5" ry="2.5" style="stroke:#181818;stroke-width:0.5;" width="177" x="399.5" y="311.6094"/><rect fill="#F1F1F1" height="10" style="stroke:#181818;stroke-width:0.5;" width="15" x="556.5" y="316.6094"/><rect fill="#F1F1F1" height="2" style="stroke:#181818;stroke-width:0.5;" width="4" x="554.5" y="318.6094"/><rect fill="#F1F1F1" height="2" style="stroke:#181818;stroke-width:0.5;" width="4" x="554.5" y="322.6094"/><text fill="#000000" font-family="sans-serif" font-size="14" font-style="italic" lengthAdjust="spacing" textLength="122" x="422" y="346.1426">&#171;Authentifizierung&#187;</text><text fill="#000000" font-family="sans-serif" font-size="14" lengthAdjust="spacing" textLength="137" x="414.5" y="363.752">JWT Authentifizierung</text><text fill="#000000" font-family="sans-serif" font-size="14" lengthAdjust="spacing" textLength="34" x="414.5" y="381.3613">Logik</text></g><!--entity Prisma ORM\nORM-Modul--><g id="elem_Prisma ORM\nORM-Modul"><rect fill="#F1F1F1" height="65.2188" rx="2.5" ry="2.5" style="stroke:#181818;stroke-width:0.5;" width="119" x="195.5" y="472.6094"/><rect fill="#F1F1F1" height="10" style="stroke:#181818;stroke-width:0.5;" width="15" x="294.5" y="477.6094"/><rect fill="#F1F1F1" height="2" style="stroke:#181818;stroke-width:0.5;" width="4" x="292.5" y="479.6094"/><rect fill="#F1F1F1" height="2" style="stroke:#181818;stroke-width:0.5;" width="4" x="292.5" y="483.6094"/><text fill="#000000" font-family="sans-serif" font-size="14" lengthAdjust="spacing" textLength="79" x="210.5" y="507.1426">Prisma ORM</text><text fill="#000000" font-family="sans-serif" font-size="14" lengthAdjust="spacing" textLength="75" x="210.5" y="524.752">ORM-Modul</text></g><!--entity PostgreSQL Datenbank\nNutzerdaten, Gewohnheiten--><g id="elem_PostgreSQL Datenbank\nNutzerdaten, Gewohnheiten"><rect fill="#F1F1F1" height="65.2188" rx="2.5" ry="2.5" style="stroke:#181818;stroke-width:0.5;" width="215" x="265.5" y="672.6094"/><rect fill="#F1F1F1" height="10" style="stroke:#181818;stroke-width:0.5;" width="15" x="460.5" y="677.6094"/><rect fill="#F1F1F1" height="2" style="stroke:#181818;stroke-width:0.5;" width="4" x="458.5" y="679.6094"/><rect fill="#F1F1F1" height="2" style="stroke:#181818;stroke-width:0.5;" width="4" x="458.5" y="683.6094"/><text fill="#000000" font-family="sans-serif" font-size="14" lengthAdjust="spacing" textLength="150" x="280.5" y="707.1426">PostgreSQL Datenbank</text><text fill="#000000" font-family="sans-serif" font-size="14" lengthAdjust="spacing" textLength="175" x="280.5" y="724.752">Nutzerdaten, Gewohnheiten</text></g><!--link Backend Service\nNode.js + Express to JWT Authentifizierung\nLogik--><g id="link_Backend Service\nNode.js + Express_JWT Authentifizierung\nLogik"><path d="M191.83,353.1094 C252.19,353.1094 330.31,353.1094 393.48,353.1094 " fill="none" id="Backend Service\nNode.js + Express-to-JWT Authentifizierung\nLogik" style="stroke:#181818;stroke-width:1.0;"/><polygon fill="#181818" points="399.48,353.1094,390.48,349.1094,394.48,353.1094,390.48,357.1094,399.48,353.1094" style="stroke:#181818;stroke-width:1.0;"/><text fill="#000000" font-family="sans-serif" font-size="13" lengthAdjust="spacing" textLength="171" x="210" y="346.6045">nutzt zur Vergabe/Validierung</text></g><!--link Backend Service\nNode.js + Express to Prisma ORM\nORM-Modul--><g id="link_Backend Service\nNode.js + Express_Prisma ORM\nORM-Modul"><path d="M144.69,385.9194 C168.53,411.4594 197.7363,442.7528 221.4963,468.2128 " fill="none" id="Backend Service\nNode.js + Express-to-Prisma ORM\nORM-Modul" style="stroke:#181818;stroke-width:1.0;"/><polygon fill="#181818" points="225.59,472.5994,222.3739,463.2904,222.1786,468.9439,216.5251,468.7486,225.59,472.5994" style="stroke:#181818;stroke-width:1.0;"/><text fill="#000000" font-family="sans-serif" font-size="13" lengthAdjust="spacing" textLength="29" x="198" y="439.1045">nutzt</text></g><!--link Mobile App\nReact Native (Expo) to Backend Service\nNode.js + Express--><g id="link_Mobile App\nReact Native (Expo)_Backend Service\nNode.js + Express"><path d="M115,186.8094 C115,226.0894 115,278.7294 115,314.5894 " fill="none" id="Mobile App\nReact Native (Expo)-to-Backend Service\nNode.js + Express" style="stroke:#181818;stroke-width:1.0;"/><polygon fill="#181818" points="115,320.5894,119,311.5894,115,315.5894,111,311.5894,115,320.5894" style="stroke:#181818;stroke-width:1.0;"/><text fill="#000000" font-family="sans-serif" font-size="13" lengthAdjust="spacing" textLength="112" x="116" y="233.1045">REST API (HTTPS)</text></g><!--link JWT Authentifizierung\nLogik to PostgreSQL Datenbank\nNutzerdaten, Gewohnheiten--><g id="link_JWT Authentifizierung\nLogik_PostgreSQL Datenbank\nNutzerdaten, Gewohnheiten"><path d="M474.58,394.9394 C451.42,465.4494 406.2627,602.8691 385.3327,666.5791 " fill="none" id="JWT Authentifizierung\nLogik-to-PostgreSQL Datenbank\nNutzerdaten, Gewohnheiten" style="stroke:#181818;stroke-width:1.0;"/><polygon fill="#181818" points="383.46,672.2794,390.0692,664.9774,385.0205,667.5291,382.4688,662.4805,383.46,672.2794" style="stroke:#181818;stroke-width:1.0;"/><text fill="#000000" font-family="sans-serif" font-size="13" lengthAdjust="spacing" textLength="256" x="448" y="510.6045">pr&#252;ft/liest Nutzerdaten (bcrypt/JWT Payload)</text></g><!--link Prisma ORM\nORM-Modul to PostgreSQL Datenbank\nNutzerdaten, Gewohnheiten--><g id="link_Prisma ORM\nORM-Modul_PostgreSQL Datenbank\nNutzerdaten, Gewohnheiten"><path d="M273.96,537.9194 C295.98,574.8694 329.0186,630.3051 351.0186,667.2251 " fill="none" id="Prisma ORM\nORM-Modul-to-PostgreSQL Datenbank\nNutzerdaten, Gewohnheiten" style="stroke:#181818;stroke-width:1.0;"/><polygon fill="#181818" points="354.09,672.3794,352.9192,662.6004,351.5305,668.0841,346.0468,666.6955,354.09,672.3794" style="stroke:#181818;stroke-width:1.0;"/><text fill="#000000" font-family="sans-serif" font-size="13" lengthAdjust="spacing" textLength="64" x="304" y="584.1045">SQL-Zugriff</text></g><!--SRC=[dLFBRjim4BphAxQvn4Rzk0T1W2GEaXQ9wrf62hJsWH9N4ckA5FX8QmVzctn6RlwnhYYbTXv5qbu4YfpbpCuEtt7CX4AOdftEZiVdbsUGIcPj53dX9C88AwbN9Ie78y5omqhemmLBX3E82F7AEYoZQ1_YaXbN5PgkucXWxDqQJQGqHzZRdirL9tQU2pIeE7Rtu3O2-7Qb4q5SnrKrLrDagOCnS-86eNFsizBT1HmURY57Hz6lcl12fuLD2oyjcXjYB8M34vOkwUAMzWc2kDjpYCF60_tkhaX9uvZA1zyjl0VYDsZjeePz_3A3O-yAya9aOaqzU9NFrQNEnRAM-EoCb5BPn0XRClWqlPeh-lIlDFTo4T7HFfmWGGk2eWAX59g2oOJyiwr26r0Zwkw9Hb3ahmCo4cfPGGDactiJbceunLnOPneTuAbmfgc-VrfWkdnZpz0_UgtfWrR7sXkuHfEp18VNJ0hUuDvCL3EzxDC3HJFpYROkDnX_leGHSwWIffRGGK7-aKUDPw3h_ELO41PTD-BCiOJP5_EmSz_ZIBn4HD93g7czqODp_A4BLQ2WlqKZZon8XE9XdlGxekbiSmjBNPPU1GyTDML0aPuGMuxbd-Y-_XY2Ms-nzO0UTKpZcto0piLiDecxKQlgsKH1Rkvyvk16IsdTvavnaSFcFY4dEMNp2LilFF441Q39j2IZH5fG3o5xeQ2E3LCXdtNhb8_DVRhCHU86hGH2z9lOrkL4pNmMyDl1hdqFV1asTvodRQZekeoMdVNWP50BQRcxW-YLn3PH-yVfafE1qGsbGEiUgUaagLbLRbZJJjXAQiQxqT_2_B_iXEr_zRaHMHRz1W00]--></g></svg>