<?xml version="1.0" encoding="us-ascii" standalone="no"?><svg xmlns="http://www.w3.org/2000/svg" xmlns:xlink="http://www.w3.org/1999/xlink" contentStyleType="text/css" height="754px" preserveAspectRatio="none" style="width:514px;height:754px;background:#FFFFFF;" version="1.1" viewBox="0 0 514 754" width="514px" zoomAndPan="magnify"><defs/><g><text fill="#000000" font-family="sans-serif" font-size="14" font-weight="bold" lengthAdjust="spacing" textLength="280" x="110.262" y="24.5332">Deployment Diagram - Habitreee System</text><!--cluster Smartphone\n(Studierende)--><g id="cluster_Smartphone\n(Studierende)"><polygon fill="none" points="172,54.6094,182,44.6094,370,44.6094,370,192.6094,360,202.6094,172,202.6094,172,54.6094" style="stroke:#181818;stroke-width:1.0;"/><line style="stroke:#181818;stroke-width:1.0;" x1="360" x2="370" y1="54.6094" y2="44.6094"/><line style="stroke:#181818;stroke-width:1.0;" x1="172" x2="360" y1="54.6094" y2="54.6094"/><line style="stroke:#181818;stroke-width:1.0;" x1="360" x2="360" y1="54.6094" y2="202.6094"/><text fill="#000000" font-family="sans-serif" font-size="14" font-weight="bold" lengthAdjust="spacing" textLength="85" x="224.5" y="72.1426">Smartphone</text><text fill="#000000" font-family="sans-serif" font-size="14" font-weight="bold" lengthAdjust="spacing" textLength="97" x="218.5" y="89.752">(Studierende)</text></g><!--cluster Firebase Cloud\n(externer Dienst)--><g id="cluster_Firebase Cloud\n(externer Dienst)"><path d="M339.3685,266.4591 C343.2601,260.6909 348.785,259.6136 352.546,266.594 C356.1143,260.9401 359.7442,260.7641 364.317,265.4504 C367.0355,258.1244 372.3532,258.7791 377.1036,263.2474 C381.1179,257.4406 385.0945,258.6292 388.7343,263.6497 C391.1296,257.6894 397.3783,255.1452 401.8222,261.4667 C404.1861,255.0152 410.1722,255.1999 413.7285,260.2302 C417.7345,254.533 422.1754,256.3199 425.2104,261.2766 C429.4132,255.4413 435.7914,256.0155 437.9443,263.2706 C441.7751,257.8942 447.1631,258.9119 449.731,264.6141 C453.3333,257.9185 458.5145,257.1807 463.0309,263.6936 C468.3144,258.1293 471.9398,259.7878 475.3932,265.67 C484.5111,259.1604 490.3968,262.5896 493,272.6094 C493.7528,272.7059 494.1434,273.2913 493.6203,273.9697 C500.0809,276.1516 501.5423,281.9726 496.2883,286.6243 C503.8784,290.045 503.108,295.0959 497.613,299.8292 C503.4843,303.7356 504.3175,308.214 499.0023,313.2761 C506.1584,316.206 505.8542,320.2231 501.256,325.3475 C507.524,330.2099 506.0831,336.0121 499.1497,338.8089 C504.269,343.935 503.2832,350.0348 496.4076,352.8121 C501.7659,357.5239 503.0807,362.1127 495.8272,366.2811 C501.1275,376.7805 498.8277,383.8297 486,384.6094 C487.1529,384.9359 487.4944,385.7251 486.7948,386.742 C482.2303,392.2359 477.0866,392.9368 473.7341,385.5163 C470.441,392.3004 466.687,393.5428 461.4041,387.4167 C458.6515,392.5036 453.8215,392.756 450.4754,388.0812 C446.6359,393.0929 441.7506,392.4815 438.6288,387.251 C434.4713,394.2365 429.7558,394.1282 424.7308,388.1835 C421.8633,392.7244 417.0239,394.1142 414.0305,388.3138 C410.8176,394.507 405.27,393.9403 401.5537,388.8715 C396.6611,394.4908 392.2568,393.2861 388.5047,387.5596 C385.4832,392.4943 379.8172,393.0013 376.524,387.8834 C372.4177,392.4143 366.927,392.5099 364.4839,386.0598 C360.6215,392.9558 355.2389,393.1881 350.7767,386.6729 C340.5602,394.3962 331.9143,390.1835 331,377.6094 C332.242,377.7391 332.6912,378.2986 332.2202,379.5214 C324.3163,376.0296 324.3806,369.0868 331.5769,364.9293 C326.2803,360.6757 325.9615,356.6796 332.2544,353.0892 C323.8987,349.7267 324.6744,343.4598 330.3378,338.2826 C323.921,335.1402 324.1286,329.3347 330.1831,326.0347 C324.636,321.241 325.503,315.6188 331.6511,312.0531 C324.4511,308.0409 326.0523,303.4075 331.1878,298.9588 C325.7124,295.849 326.2,290.4216 331.037,287.1798 C324.3517,277.4456 326.9223,269.6096 338,265.6094 C338.7041,265.2641 339.467,265.5117 339.3685,266.4591 " fill="none" style="stroke:#181818;stroke-width:1.0;"/><text fill="#000000" font-family="sans-serif" font-size="14" font-weight="bold" lengthAdjust="spacing" textLength="107" x="358.5" y="285.1426">Firebase Cloud</text><text fill="#000000" font-family="sans-serif" font-size="14" font-weight="bold" lengthAdjust="spacing" textLength="120" x="352" y="302.752">(externer Dienst)</text></g><!--cluster Hochschulserver\n(Backend Server)--><g id="cluster_Hochschulserver\n(Backend Server)"><polygon fill="none" points="30,262.6094,40,252.6094,229,252.6094,229,527.6094,219,537.6094,30,537.6094,30,262.6094" style="stroke:#181818;stroke-width:1.0;"/><line style="stroke:#181818;stroke-width:1.0;" x1="219" x2="229" y1="262.6094" y2="252.6094"/><line style="stroke:#181818;stroke-width:1.0;" x1="30" x2="219" y1="262.6094" y2="262.6094"/><line style="stroke:#181818;stroke-width:1.0;" x1="219" x2="219" y1="262.6094" y2="537.6094"/><text fill="#000000" font-family="sans-serif" font-size="14" font-weight="bold" lengthAdjust="spacing" textLength="121" x="65" y="280.1426">Hochschulserver</text><text fill="#000000" font-family="sans-serif" font-size="14" font-weight="bold" lengthAdjust="spacing" textLength="123" x="64" y="297.752">(Backend Server)</text></g><!--cluster Hochschulserver\n(PostgreSQL Server)--><g id="cluster_Hochschulserver\n(PostgreSQL Server)"><path d="M6,597.6094 C6,587.6094 130,587.6094 130,587.6094 C130,587.6094 254,587.6094 254,597.6094 L254,727.6094 C254,737.6094 130,737.6094 130,737.6094 C130,737.6094 6,737.6094 6,727.6094 L6,597.6094 " fill="none" style="stroke:#181818;stroke-width:1.0;"/><path d="M6,597.6094 C6,607.6094 130,607.6094 130,607.6094 C130,607.6094 254,607.6094 254,597.6094 " fill="none" style="stroke:#181818;stroke-width:1.0;"/><text fill="#000000" font-family="sans-serif" font-size="14" font-weight="bold" lengthAdjust="spacing" textLength="121" x="69.5" y="624.1426">Hochschulserver</text><text fill="#000000" font-family="sans-serif" font-size="14" font-weight="bold" lengthAdjust="spacing" textLength="145" x="57.5" y="641.752">(PostgreSQL Server)</text></g><!--entity Mobile App\nReact Native (Expo)--><g id="elem_Mobile App\nReact Native (Expo)"><rect fill="#F1F1F1" height="82.8281" rx="2.5" ry="2.5" style="stroke:#181818;stroke-width:0.5;" width="165" x="188.5" y="103.6094"/><rect fill="#F1F1F1" height="10" style="stroke:#181818;stroke-width:0.5;" width="15" x="333.5" y="108.6094"/><rect fill="#F1F1F1" height="2" style="stroke:#181818;stroke-width:0.5;" width="4" x="331.5" y="110.6094"/><rect fill="#F1F1F1" height="2" style="stroke:#181818;stroke-width:0.5;" width="4" x="331.5" y="114.6094"/><text fill="#000000" font-family="sans-serif" font-size="14" font-style="italic" lengthAdjust="spacing" textLength="87" x="222.5" y="138.1426">&#171;Mobile App&#187;</text><text fill="#000000" font-family="sans-serif" font-size="14" lengthAdjust="spacing" textLength="70" x="203.5" y="155.752">Mobile App</text><text fill="#000000" font-family="sans-serif" font-size="14" lengthAdjust="spacing" textLength="125" x="203.5" y="173.3613">React Native (Expo)</text></g><!--entity Firebase Auth\nAuthentifizierung--><g id="elem_Firebase Auth\nAuthentifizierung"><rect fill="#F1F1F1" height="65.2188" rx="2.5" ry="2.5" style="stroke:#181818;stroke-width:0.5;" width="145" x="339.5" y="311.6094"/><rect fill="#F1F1F1" height="10" style="stroke:#181818;stroke-width:0.5;" width="15" x="464.5" y="316.6094"/><rect fill="#F1F1F1" height="2" style="stroke:#181818;stroke-width:0.5;" width="4" x="462.5" y="318.6094"/><rect fill="#F1F1F1" height="2" style="stroke:#181818;stroke-width:0.5;" width="4" x="462.5" y="322.6094"/><text fill="#000000" font-family="sans-serif" font-size="14" lengthAdjust="spacing" textLength="89" x="354.5" y="346.1426">Firebase Auth</text><text fill="#000000" font-family="sans-serif" font-size="14" lengthAdjust="spacing" textLength="105" x="354.5" y="363.752">Authentifizierung</text></g><!--entity Backend Service\nNode.js + Express--><g id="elem_Backend Service\nNode.js + Express"><rect fill="#F1F1F1" height="65.2188" rx="2.5" ry="2.5" style="stroke:#181818;stroke-width:0.5;" width="153" x="53.5" y="311.6094"/><rect fill="#F1F1F1" height="10" style="stroke:#181818;stroke-width:0.5;" width="15" x="186.5" y="316.6094"/><rect fill="#F1F1F1" height="2" style="stroke:#181818;stroke-width:0.5;" width="4" x="184.5" y="318.6094"/><rect fill="#F1F1F1" height="2" style="stroke:#181818;stroke-width:0.5;" width="4" x="184.5" y="322.6094"/><text fill="#000000" font-family="sans-serif" font-size="14" lengthAdjust="spacing" textLength="106" x="68.5" y="346.1426">Backend Service</text><text fill="#000000" font-family="sans-serif" font-size="14" lengthAdjust="spacing" textLength="113" x="68.5" y="363.752">Node.js + Express</text></g><!--entity Prisma ORM\nORM-Modul--><g id="elem_Prisma ORM\nORM-Modul"><rect fill="#F1F1F1" height="65.2188" rx="2.5" ry="2.5" style="stroke:#181818;stroke-width:0.5;" width="119" x="70.5" y="456.6094"/><rect fill="#F1F1F1" height="10" style="stroke:#181818;stroke-width:0.5;" width="15" x="169.5" y="461.6094"/><rect fill="#F1F1F1" height="2" style="stroke:#181818;stroke-width:0.5;" width="4" x="167.5" y="463.6094"/><rect fill="#F1F1F1" height="2" style="stroke:#181818;stroke-width:0.5;" width="4" x="167.5" y="467.6094"/><text fill="#000000" font-family="sans-serif" font-size="14" lengthAdjust="spacing" textLength="79" x="85.5" y="491.1426">Prisma ORM</text><text fill="#000000" font-family="sans-serif" font-size="14" lengthAdjust="spacing" textLength="75" x="85.5" y="508.752">ORM-Modul</text></g><!--entity PostgreSQL Datenbank\nNutzerdaten, Gewohnheiten--><g id="elem_PostgreSQL Datenbank\nNutzerdaten, Gewohnheiten"><rect fill="#F1F1F1" height="65.2188" rx="2.5" ry="2.5" style="stroke:#181818;stroke-width:0.5;" width="215" x="22.5" y="656.6094"/><rect fill="#F1F1F1" height="10" style="stroke:#181818;stroke-width:0.5;" width="15" x="217.5" y="661.6094"/><rect fill="#F1F1F1" height="2" style="stroke:#181818;stroke-width:0.5;" width="4" x="215.5" y="663.6094"/><rect fill="#F1F1F1" height="2" style="stroke:#181818;stroke-width:0.5;" width="4" x="215.5" y="667.6094"/><text fill="#000000" font-family="sans-serif" font-size="14" lengthAdjust="spacing" textLength="150" x="37.5" y="691.1426">PostgreSQL Datenbank</text><text fill="#000000" font-family="sans-serif" font-size="14" lengthAdjust="spacing" textLength="175" x="37.5" y="708.752">Nutzerdaten, Gewohnheiten</text></g><!--link Mobile App\nReact Native (Expo) to Backend Service\nNode.js + Express--><g id="link_Mobile App\nReact Native (Expo)_Backend Service\nNode.js + Express"><path d="M241.78,186.9294 C215.33,223.8894 180.3818,272.7101 156.1718,306.5401 " fill="none" id="Mobile App\nReact Native (Expo)-to-Backend Service\nNode.js + Express" style="stroke:#181818;stroke-width:1.0;"/><polygon fill="#181818" points="152.68,311.4194,161.1705,306.4283,155.5898,307.3533,154.6648,301.7726,152.68,311.4194" style="stroke:#181818;stroke-width:1.0;"/><text fill="#000000" font-family="sans-serif" font-size="13" lengthAdjust="spacing" textLength="112" x="219" y="233.1045">REST API (HTTPS)</text></g><!--link Backend Service\nNode.js + Express to Firebase Auth\nAuthentifizierung--><g id="link_Backend Service\nNode.js + Express_Firebase Auth\nAuthentifizierung"><path d="M206.69,344.1094 C247.95,344.1094 292.57,344.1094 333.22,344.1094 " fill="none" id="Backend Service\nNode.js + Express-to-Firebase Auth\nAuthentifizierung" style="stroke:#181818;stroke-width:1.0;"/><polygon fill="#181818" points="339.22,344.1094,330.22,340.1094,334.22,344.1094,330.22,348.1094,339.22,344.1094" style="stroke:#181818;stroke-width:1.0;"/><text fill="#000000" font-family="sans-serif" font-size="13" lengthAdjust="spacing" textLength="96" x="225" y="337.6045">Authentifizierung</text></g><!--link Mobile App\nReact Native (Expo) to Firebase Auth\nAuthentifizierung--><g id="link_Mobile App\nReact Native (Expo)_Firebase Auth\nAuthentifizierung"><path d="M312.91,186.7794 C322.3,196.7894 331.88,207.7594 340,218.6094 C362.22,248.2994 380.1315,280.1011 393.5715,306.0611 " fill="none" id="Mobile App\nReact Native (Expo)-to-Firebase Auth\nAuthentifizierung" style="stroke:#181818;stroke-width:1.0;"/><polygon fill="#181818" points="396.33,311.3894,395.7444,301.5579,394.0312,306.9492,388.64,305.236,396.33,311.3894" style="stroke:#181818;stroke-width:1.0;"/><text fill="#000000" font-family="sans-serif" font-size="13" lengthAdjust="spacing" textLength="99" x="352" y="233.1045">meldet Nutzer an</text></g><!--link Prisma ORM\nORM-Modul to PostgreSQL Datenbank\nNutzerdaten, Gewohnheiten--><g id="link_Prisma ORM\nORM-Modul_PostgreSQL Datenbank\nNutzerdaten, Gewohnheiten"><path d="M130,521.9194 C130,558.8694 130,613.4594 130,650.3794 " fill="none" id="Prisma ORM\nORM-Modul-to-PostgreSQL Datenbank\nNutzerdaten, Gewohnheiten" style="stroke:#181818;stroke-width:1.0;"/><polygon fill="#181818" points="130,656.3794,134,647.3794,130,651.3794,126,647.3794,130,656.3794" style="stroke:#181818;stroke-width:1.0;"/><text fill="#000000" font-family="sans-serif" font-size="13" lengthAdjust="spacing" textLength="64" x="131" y="568.1045">SQL-Zugriff</text></g><!--link Backend Service\nNode.js + Express to Prisma ORM\nORM-Modul--><g id="link_Backend Service\nNode.js + Express_Prisma ORM\nORM-Modul"><path d="M130,376.8494 C130,400.5394 130,426.7894 130,450.4594 " fill="none" id="Backend Service\nNode.js + Express-to-Prisma ORM\nORM-Modul" style="stroke:#181818;stroke-width:1.0;"/><polygon fill="#181818" points="130,456.4594,134,447.4594,130,451.4594,126,447.4594,130,456.4594" style="stroke:#181818;stroke-width:1.0;"/><text fill="#000000" font-family="sans-serif" font-size="13" lengthAdjust="spacing" textLength="29" x="131" y="423.1045">nutzt</text></g><!--SRC=[bLF1RXen4BtxAwPS0cgt7r15I3JGK2bGog8UMlRWNG-xq-pQo9vDarJvzyx2fW6AbEt5aiVFxyrx7hynk26Bi9nShKRpwvi9PAKEGIacBX76k2tTGuMMOKmwzxg22AOw9VQ82F53OAoKke2uqfwtXHCgWnxcDJ-YLzOPXDxBsThsOwuDeKThSD23tmhWnyob95gZxNPjbwWpXhbckaFeJ-wtRf30vUKBP3XKJutW9_AOwY2rcWleupsZjw8y9hI11oehNMsWznTsrUn5_nJOzd14jxRDAgPfGu_IR6tpPAywTLaHig8k0_ex8Qc8uQFERiLEQ_O48OhjESIxmhFWOPKoIMOkrz__3F0MnBN74986jl0KAWrVbhErbIMQELENYPAZYrEA1A9eU7WZWGzWvI5ut_l21SuznbzlOAmPRQhjhGH7EJPnxBi3rxnUZeLWKL8qclKkbZE-3lYEhPqJ4d-xaJ1DuHrSuozNs099Tcsqtz2dP8raZLQzFXCxhnr2b0oMatW5eyLdw4zNgqKyK9tkDVolJeMm_rFisdmNyWfBWzn-9z0IpFc1Q9_-FuCN0S56t-lSqsRJCPRZ6JjguddS_W00]--></g></svg>